<svg width="850" height="134" viewBox="0 0 850 134" fill="none" xmlns="http://www.w3.org/2000/svg">
<path d="M0.544 18L7.888 1.2H13.456L20.8 18H14.944L9.52 3.888H11.728L6.304 18H0.544ZM4.912 15.072L6.352 10.992H14.08L15.52 15.072H4.912ZM21.7039 18V1.2H30.6799C32.9999 1.2 34.7119 1.616 35.8159 2.448C36.9199 3.264 37.4719 4.312 37.4719 5.592C37.4719 6.44 37.2319 7.2 36.7519 7.872C36.2879 8.528 35.6079 9.048 34.7119 9.432C33.8159 9.816 32.7119 10.008 31.3999 10.008L31.8799 8.712C33.1919 8.712 34.3199 8.896 35.2639 9.264C36.2239 9.632 36.9599 10.168 37.4719 10.872C37.9999 11.56 38.2639 12.392 38.2639 13.368C38.2639 14.824 37.6559 15.96 36.4399 16.776C35.2399 17.592 33.4799 18 31.1599 18H21.7039ZM27.2719 14.04H30.6799C31.3039 14.04 31.7679 13.928 32.0719 13.704C32.3919 13.48 32.5519 13.152 32.5519 12.72C32.5519 12.288 32.3919 11.96 32.0719 11.736C31.7679 11.512 31.3039 11.4 30.6799 11.4H26.8879V7.656H29.9119C30.5519 7.656 31.0159 7.552 31.3039 7.344C31.6079 7.12 31.7599 6.808 31.7599 6.408C31.7599 5.992 31.6079 5.68 31.3039 5.472C31.0159 5.264 30.5519 5.16 29.9119 5.16H27.2719V14.04ZM49.0984 18.384C47.7224 18.384 46.4504 18.168 45.2824 17.736C44.1304 17.304 43.1304 16.696 42.2824 15.912C41.4344 15.112 40.7704 14.176 40.2904 13.104C39.8264 12.032 39.5944 10.864 39.5944 9.6C39.5944 8.32 39.8264 7.152 40.2904 6.096C40.7704 5.024 41.4344 4.096 42.2824 3.312C43.1304 2.512 44.1304 1.896 45.2824 1.464C46.4504 1.032 47.7144 0.816 49.0744 0.816C50.4504 0.816 51.7144 1.032 52.8664 1.464C54.0184 1.896 55.0184 2.512 55.8664 3.312C56.7144 4.096 57.3704 5.024 57.8344 6.096C58.3144 7.152 58.5544 8.32 58.5544 9.6C58.5544 10.864 58.3144 12.032 57.8344 13.104C57.3704 14.176 56.7144 15.112 55.8664 15.912C55.0184 16.696 54.0184 17.304 52.8664 17.736C51.7144 18.168 50.4584 18.384 49.0984 18.384ZM49.0744 13.8C49.6024 13.8 50.0904 13.704 50.5384 13.512C51.0024 13.32 51.4024 13.048 51.7384 12.696C52.0904 12.328 52.3624 11.888 52.5544 11.376C52.7464 10.848 52.8424 10.256 52.8424 9.6C52.8424 8.944 52.7464 8.36 52.5544 7.848C52.3624 7.32 52.0904 6.88 51.7384 6.528C51.4024 6.16 51.0024 5.88 50.5384 5.688C50.0904 5.496 49.6024 5.4 49.0744 5.4C48.5464 5.4 48.0504 5.496 47.5864 5.688C47.1384 5.88 46.7384 6.16 46.3864 6.528C46.0504 6.88 45.7864 7.32 45.5944 7.848C45.4024 8.36 45.3064 8.944 45.3064 9.6C45.3064 10.256 45.4024 10.848 45.5944 11.376C45.7864 11.888 46.0504 12.328 46.3864 12.696C46.7384 13.048 47.1384 13.32 47.5864 13.512C48.0504 13.704 48.5464 13.8 49.0744 13.8ZM68.6502 18.384C66.0742 18.384 64.0662 17.688 62.6262 16.296C61.1862 14.904 60.4662 12.952 60.4662 10.44V1.2H66.1302V10.272C66.1302 11.552 66.3622 12.464 66.8262 13.008C67.2902 13.536 67.9142 13.8 68.6982 13.8C69.4982 13.8 70.1222 13.536 70.5702 13.008C71.0342 12.464 71.2662 11.552 71.2662 10.272V1.2H76.8342V10.44C76.8342 12.952 76.1142 14.904 74.6742 16.296C73.2342 17.688 71.2262 18.384 68.6502 18.384ZM82.8441 18V5.592H77.9241V1.2H93.4281V5.592H88.5081V18H82.8441ZM107.279 7.44H114.767V11.52H107.279V7.44ZM107.663 13.728H116.063V18H102.095V1.2H115.751V5.472H107.663V13.728ZM123.289 18L116.185 1.2H122.281L128.065 15.384H124.441L130.393 1.2H135.961L128.857 18H123.289ZM141.708 7.44H149.196V11.52H141.708V7.44ZM142.092 13.728H150.492V18H136.524V1.2H150.18V5.472H142.092V13.728ZM152.673 18V1.2H157.329L165.873 11.424H163.713V1.2H169.233V18H164.577L156.033 7.776H158.193V18H152.673ZM175.61 18V5.592H170.69V1.2H186.194V5.592H181.274V18H175.61Z" fill="url(#paint0_linear_7_50)"/>
<path d="M2.875 76V46.9091H15.4886C17.7045 46.9091 19.5653 47.2074 21.071 47.804C22.5862 48.4006 23.7273 49.2434 24.4943 50.3324C25.2708 51.4214 25.6591 52.7045 25.6591 54.1818C25.6591 55.2519 25.4223 56.2273 24.9489 57.108C24.4848 57.9886 23.8314 58.7273 22.9886 59.3239C22.1458 59.911 21.161 60.3182 20.0341 60.5455V60.8295C21.2841 60.8769 22.4205 61.1941 23.4432 61.7812C24.4659 62.3589 25.2803 63.1591 25.8864 64.1818C26.4924 65.1951 26.7955 66.3883 26.7955 67.7614C26.7955 69.3523 26.3788 70.768 25.5455 72.0085C24.7216 73.2491 23.5473 74.2244 22.0227 74.9347C20.4981 75.6449 18.6799 76 16.5682 76H2.875ZM10.7727 69.6932H14.4659C15.7917 69.6932 16.786 69.447 17.4489 68.9545C18.1117 68.4527 18.4432 67.714 18.4432 66.7386C18.4432 66.0568 18.2869 65.4792 17.9744 65.0057C17.6619 64.5322 17.2169 64.1723 16.6392 63.9261C16.071 63.6799 15.3845 63.5568 14.5795 63.5568H10.7727V69.6932ZM10.7727 58.6705H14.0114C14.7027 58.6705 15.3134 58.5616 15.8438 58.3438C16.3741 58.1259 16.786 57.8134 17.0795 57.4062C17.3826 56.9896 17.5341 56.483 17.5341 55.8864C17.5341 54.9867 17.2121 54.3002 16.5682 53.8267C15.9242 53.3438 15.1098 53.1023 14.125 53.1023H10.7727V58.6705ZM37.4915 46.9091V76H29.5938V46.9091H37.4915ZM60.1264 56.5114C60.0033 56.0095 59.8092 55.5691 59.544 55.1903C59.2789 54.8021 58.9474 54.4754 58.5497 54.2102C58.1615 53.9356 57.7069 53.732 57.1861 53.5994C56.6747 53.4574 56.1113 53.3864 55.4957 53.3864C54.17 53.3864 53.0384 53.7036 52.1009 54.3381C51.1728 54.9725 50.4626 55.8864 49.9702 57.0795C49.4872 58.2727 49.2457 59.7121 49.2457 61.3977C49.2457 63.1023 49.4777 64.5606 49.9418 65.7727C50.4058 66.9848 51.0971 67.9129 52.0156 68.5568C52.9342 69.2008 54.0753 69.5227 55.4389 69.5227C56.6416 69.5227 57.6406 69.3475 58.4361 68.9972C59.241 68.6468 59.8423 68.1496 60.2401 67.5057C60.6378 66.8617 60.8366 66.1042 60.8366 65.233L62.2003 65.375H55.5526V59.75H68.4503V63.7841C68.4503 66.4356 67.8868 68.7036 66.7599 70.5881C65.6425 72.4631 64.099 73.9025 62.1293 74.9062C60.169 75.9006 57.92 76.3977 55.3821 76.3977C52.5507 76.3977 50.0649 75.7964 47.9247 74.5938C45.7846 73.3911 44.1132 71.6771 42.9105 69.4517C41.7173 67.2263 41.1207 64.5795 41.1207 61.5114C41.1207 59.1061 41.4853 56.9754 42.2145 55.1193C42.9531 53.2633 43.9759 51.696 45.2827 50.4176C46.5895 49.1297 48.0999 48.1591 49.8139 47.5057C51.5279 46.8428 53.3651 46.5114 55.3253 46.5114C57.0488 46.5114 58.6491 46.7576 60.1264 47.25C61.6132 47.733 62.9247 48.4242 64.0611 49.3239C65.2069 50.214 66.1302 51.2699 66.831 52.4915C67.5317 53.7131 67.9579 55.053 68.1094 56.5114H60.1264ZM91.0249 56.5114C90.9018 56.0095 90.7076 55.5691 90.4425 55.1903C90.1773 54.8021 89.8459 54.4754 89.4482 54.2102C89.0599 53.9356 88.6054 53.732 88.0845 53.5994C87.5732 53.4574 87.0097 53.3864 86.3942 53.3864C85.0684 53.3864 83.9368 53.7036 82.9993 54.3381C82.0713 54.9725 81.361 55.8864 80.8686 57.0795C80.3857 58.2727 80.1442 59.7121 80.1442 61.3977C80.1442 63.1023 80.3762 64.5606 80.8402 65.7727C81.3042 66.9848 81.9955 67.9129 82.9141 68.5568C83.8326 69.2008 84.9737 69.5227 86.3374 69.5227C87.54 69.5227 88.5391 69.3475 89.3345 68.9972C90.1394 68.6468 90.7408 68.1496 91.1385 67.5057C91.5362 66.8617 91.7351 66.1042 91.7351 65.233L93.0987 65.375H86.451V59.75H99.3487V63.7841C99.3487 66.4356 98.7853 68.7036 97.6584 70.5881C96.541 72.4631 94.9974 73.9025 93.0277 74.9062C91.0675 75.9006 88.8184 76.3977 86.2805 76.3977C83.4491 76.3977 80.9633 75.7964 78.8232 74.5938C76.683 73.3911 75.0116 71.6771 73.8089 69.4517C72.6158 67.2263 72.0192 64.5795 72.0192 61.5114C72.0192 59.1061 72.3838 56.9754 73.1129 55.1193C73.8516 53.2633 74.8743 51.696 76.1811 50.4176C77.4879 49.1297 78.9983 48.1591 80.7124 47.5057C82.4264 46.8428 84.2635 46.5114 86.2237 46.5114C87.9472 46.5114 89.5476 46.7576 91.0249 47.25C92.5116 47.733 93.8232 48.4242 94.9595 49.3239C96.1054 50.214 97.0286 51.2699 97.7294 52.4915C98.4302 53.7131 98.8563 55.053 99.0078 56.5114H91.0249ZM103.031 76V46.9091H123.997V53.2727H110.929V58.2727H122.918V64.6364H110.929V69.6364H123.94V76H103.031ZM143.596 56C143.52 55.053 143.165 54.3144 142.531 53.7841C141.906 53.2538 140.954 52.9886 139.675 52.9886C138.861 52.9886 138.193 53.0881 137.673 53.2869C137.161 53.4763 136.782 53.7367 136.536 54.0682C136.29 54.3996 136.162 54.7784 136.153 55.2045C136.134 55.5549 136.195 55.8722 136.337 56.1562C136.489 56.4309 136.726 56.6818 137.048 56.9091C137.37 57.1269 137.781 57.3258 138.283 57.5057C138.785 57.6856 139.382 57.8466 140.073 57.9886L142.46 58.5C144.069 58.8409 145.447 59.2907 146.593 59.8494C147.739 60.4081 148.676 61.0663 149.406 61.8239C150.135 62.572 150.67 63.4148 151.011 64.3523C151.361 65.2898 151.541 66.3125 151.55 67.4205C151.541 69.3333 151.063 70.9527 150.116 72.2784C149.169 73.6042 147.815 74.6127 146.053 75.304C144.301 75.9953 142.194 76.3409 139.732 76.3409C137.204 76.3409 134.997 75.9669 133.113 75.2188C131.238 74.4706 129.78 73.3201 128.738 71.767C127.706 70.2045 127.185 68.2064 127.175 65.7727H134.675C134.723 66.6629 134.945 67.411 135.343 68.017C135.741 68.6231 136.299 69.0824 137.019 69.3949C137.748 69.7074 138.615 69.8636 139.619 69.8636C140.461 69.8636 141.167 69.7595 141.735 69.5511C142.303 69.3428 142.734 69.054 143.028 68.6847C143.321 68.3153 143.473 67.8939 143.482 67.4205C143.473 66.9754 143.326 66.5871 143.042 66.2557C142.767 65.9148 142.313 65.6117 141.678 65.3466C141.044 65.072 140.187 64.8163 139.107 64.5795L136.21 63.9545C133.634 63.3958 131.603 62.4631 130.116 61.1562C128.638 59.84 127.905 58.0455 127.914 55.7727C127.905 53.9261 128.397 52.3116 129.391 50.929C130.395 49.5369 131.782 48.4527 133.553 47.6761C135.334 46.8996 137.374 46.5114 139.675 46.5114C142.024 46.5114 144.055 46.9044 145.769 47.6903C147.483 48.4763 148.804 49.5843 149.732 51.0142C150.67 52.4347 151.143 54.0966 151.153 56H143.596ZM153.759 53.2727V46.9091H179.043V53.2727H170.293V76H162.509V53.2727H153.759ZM201.178 76H189.984V46.9091H201.064C204.056 46.9091 206.642 47.4915 208.82 48.6562C211.007 49.8116 212.693 51.4782 213.876 53.6562C215.07 55.8248 215.666 58.4242 215.666 61.4545C215.666 64.4848 215.074 67.089 213.891 69.267C212.707 71.4356 211.031 73.1023 208.862 74.267C206.694 75.4223 204.132 76 201.178 76ZM197.882 69.2955H200.893C202.333 69.2955 203.559 69.0634 204.572 68.5994C205.595 68.1354 206.372 67.3352 206.902 66.1989C207.442 65.0625 207.712 63.4811 207.712 61.4545C207.712 59.428 207.437 57.8466 206.888 56.7102C206.348 55.5739 205.553 54.7737 204.501 54.3097C203.46 53.8456 202.181 53.6136 200.666 53.6136H197.882V69.2955ZM219.32 76V46.9091H240.286V53.2727H227.218V58.2727H239.207V64.6364H227.218V69.6364H240.229V76H219.32ZM252.158 46.9091L258.124 67.4205H258.351L264.317 46.9091H273.237L263.635 76H252.839L243.237 46.9091H252.158ZM276.039 76V46.9091H297.005V53.2727H283.937V58.2727H295.925V64.6364H283.937V69.6364H296.948V76H276.039ZM300.922 76V46.9091H308.82V69.6364H320.581V76H300.922ZM350.822 61.4545C350.822 64.6932 350.193 67.4252 348.933 69.6506C347.674 71.8665 345.974 73.5473 343.834 74.6932C341.694 75.8295 339.307 76.3977 336.675 76.3977C334.023 76.3977 331.627 75.8248 329.487 74.679C327.357 73.5237 325.661 71.8381 324.402 69.6222C323.152 67.3968 322.527 64.6742 322.527 61.4545C322.527 58.2159 323.152 55.4886 324.402 53.2727C325.661 51.0473 327.357 49.3665 329.487 48.2301C331.627 47.0843 334.023 46.5114 336.675 46.5114C339.307 46.5114 341.694 47.0843 343.834 48.2301C345.974 49.3665 347.674 51.0473 348.933 53.2727C350.193 55.4886 350.822 58.2159 350.822 61.4545ZM342.697 61.4545C342.697 59.7121 342.465 58.2443 342.001 57.0511C341.547 55.8485 340.87 54.9394 339.97 54.3239C339.08 53.6989 337.982 53.3864 336.675 53.3864C335.368 53.3864 334.265 53.6989 333.365 54.3239C332.475 54.9394 331.798 55.8485 331.334 57.0511C330.879 58.2443 330.652 59.7121 330.652 61.4545C330.652 63.197 330.879 64.6695 331.334 65.8722C331.798 67.0653 332.475 67.9744 333.365 68.5994C334.265 69.215 335.368 69.5227 336.675 69.5227C337.982 69.5227 339.08 69.215 339.97 68.5994C340.87 67.9744 341.547 67.0653 342.001 65.8722C342.465 64.6695 342.697 63.197 342.697 61.4545ZM354.477 76V46.9091H367.033C369.192 46.9091 371.082 47.3352 372.701 48.1875C374.32 49.0398 375.58 50.2377 376.479 51.7812C377.379 53.3248 377.829 55.1288 377.829 57.1932C377.829 59.2765 377.365 61.0805 376.437 62.6051C375.518 64.1297 374.226 65.304 372.559 66.1278C370.902 66.9517 368.965 67.3636 366.749 67.3636H359.249V61.2273H365.158C366.086 61.2273 366.877 61.0663 367.531 60.7443C368.193 60.4129 368.7 59.9441 369.05 59.3381C369.41 58.732 369.59 58.017 369.59 57.1932C369.59 56.3598 369.41 55.6496 369.05 55.0625C368.7 54.4659 368.193 54.0114 367.531 53.6989C366.877 53.3769 366.086 53.2159 365.158 53.2159H362.374V76H354.477ZM380.727 76V46.9091H401.692V53.2727H388.624V58.2727H400.613V64.6364H388.624V69.6364H401.636V76H380.727ZM405.609 76V46.9091H418.166C420.325 46.9091 422.214 47.3021 423.834 48.0881C425.453 48.8741 426.713 50.0057 427.612 51.483C428.512 52.9602 428.962 54.7311 428.962 56.7955C428.962 58.8788 428.498 60.6354 427.57 62.0653C426.651 63.4953 425.358 64.5748 423.692 65.304C422.035 66.0331 420.098 66.3977 417.882 66.3977H410.382V60.2614H416.291C417.219 60.2614 418.01 60.1477 418.663 59.9205C419.326 59.6837 419.833 59.3097 420.183 58.7983C420.543 58.2869 420.723 57.6193 420.723 56.7955C420.723 55.9621 420.543 55.285 420.183 54.7642C419.833 54.2339 419.326 53.8456 418.663 53.5994C418.01 53.3437 417.219 53.2159 416.291 53.2159H413.507V76H405.609ZM422.655 62.6477L429.928 76H421.348L414.246 62.6477H422.655Z" fill="black"/>
<path d="M30.0341 114.818H22.0227C21.9659 114.155 21.8144 113.554 21.5682 113.014C21.3314 112.474 21 112.01 20.5739 111.622C20.1572 111.224 19.6506 110.921 19.054 110.713C18.4574 110.495 17.7803 110.386 17.0227 110.386C15.697 110.386 14.5748 110.708 13.6562 111.352C12.7472 111.996 12.0559 112.92 11.5824 114.122C11.1184 115.325 10.8864 116.769 10.8864 118.455C10.8864 120.235 11.1231 121.726 11.5966 122.929C12.0795 124.122 12.7756 125.022 13.6847 125.628C14.5938 126.224 15.6875 126.523 16.9659 126.523C17.6951 126.523 18.3485 126.433 18.9261 126.253C19.5038 126.063 20.0057 125.794 20.4318 125.443C20.858 125.093 21.2036 124.671 21.4688 124.179C21.7434 123.677 21.928 123.114 22.0227 122.489L30.0341 122.545C29.9394 123.777 29.5938 125.031 28.9972 126.31C28.4006 127.579 27.553 128.753 26.4545 129.832C25.3655 130.902 24.0161 131.764 22.4062 132.418C20.7964 133.071 18.9261 133.398 16.7955 133.398C14.125 133.398 11.7292 132.825 9.60795 131.679C7.49621 130.533 5.82481 128.848 4.59375 126.622C3.37216 124.397 2.76136 121.674 2.76136 118.455C2.76136 115.216 3.38636 112.489 4.63636 110.273C5.88636 108.047 7.57197 106.366 9.69318 105.23C11.8144 104.084 14.1818 103.511 16.7955 103.511C18.6326 103.511 20.3229 103.762 21.8665 104.264C23.41 104.766 24.7642 105.5 25.929 106.466C27.0938 107.422 28.0313 108.601 28.7415 110.003C29.4517 111.404 29.8826 113.009 30.0341 114.818ZM61.799 118.455C61.799 121.693 61.1693 124.425 59.9098 126.651C58.6503 128.866 56.9505 130.547 54.8104 131.693C52.6702 132.83 50.2839 133.398 47.6513 133.398C44.9998 133.398 42.6039 132.825 40.4638 131.679C38.3331 130.524 36.638 128.838 35.3786 126.622C34.1286 124.397 33.5036 121.674 33.5036 118.455C33.5036 115.216 34.1286 112.489 35.3786 110.273C36.638 108.047 38.3331 106.366 40.4638 105.23C42.6039 104.084 44.9998 103.511 47.6513 103.511C50.2839 103.511 52.6702 104.084 54.8104 105.23C56.9505 106.366 58.6503 108.047 59.9098 110.273C61.1693 112.489 61.799 115.216 61.799 118.455ZM53.674 118.455C53.674 116.712 53.442 115.244 52.978 114.051C52.5234 112.848 51.8464 111.939 50.9467 111.324C50.0566 110.699 48.9581 110.386 47.6513 110.386C46.3445 110.386 45.2412 110.699 44.3416 111.324C43.4515 111.939 42.7744 112.848 42.3104 114.051C41.8558 115.244 41.6286 116.712 41.6286 118.455C41.6286 120.197 41.8558 121.67 42.3104 122.872C42.7744 124.065 43.4515 124.974 44.3416 125.599C45.2412 126.215 46.3445 126.523 47.6513 126.523C48.9581 126.523 50.0566 126.215 50.9467 125.599C51.8464 124.974 52.5234 124.065 52.978 122.872C53.442 121.67 53.674 120.197 53.674 118.455ZM90.6236 103.909V133H84.0327L73.5213 117.716H73.3509V133H65.4531V103.909H72.1577L82.4986 119.136H82.7259V103.909H90.6236ZM94.3594 133V103.909H114.814V110.273H102.257V115.273H113.564V121.636H102.257V133H94.3594ZM117.719 133V103.909H138.685V110.273H125.616V115.273H137.605V121.636H125.616V126.636H138.628V133H117.719ZM142.602 133V103.909H155.158C157.317 103.909 159.207 104.302 160.826 105.088C162.445 105.874 163.705 107.006 164.604 108.483C165.504 109.96 165.954 111.731 165.954 113.795C165.954 115.879 165.49 117.635 164.562 119.065C163.643 120.495 162.351 121.575 160.684 122.304C159.027 123.033 157.09 123.398 154.874 123.398H147.374V117.261H153.283C154.211 117.261 155.002 117.148 155.656 116.92C156.318 116.684 156.825 116.31 157.175 115.798C157.535 115.287 157.715 114.619 157.715 113.795C157.715 112.962 157.535 112.285 157.175 111.764C156.825 111.234 156.318 110.846 155.656 110.599C155.002 110.344 154.211 110.216 153.283 110.216H150.499V133H142.602ZM159.647 119.648L166.92 133H158.34L151.238 119.648H159.647ZM169.32 133V103.909H190.286V110.273H177.218V115.273H189.207V121.636H177.218V126.636H190.229V133H169.32ZM219.374 103.909V133H212.783L202.271 117.716H202.101V133H194.203V103.909H200.908L211.249 119.136H211.476V103.909H219.374ZM250.268 114.818H242.257C242.2 114.155 242.049 113.554 241.803 113.014C241.566 112.474 241.234 112.01 240.808 111.622C240.392 111.224 239.885 110.921 239.288 110.713C238.692 110.495 238.015 110.386 237.257 110.386C235.931 110.386 234.809 110.708 233.891 111.352C232.982 111.996 232.29 112.92 231.817 114.122C231.353 115.325 231.121 116.769 231.121 118.455C231.121 120.235 231.357 121.726 231.831 122.929C232.314 124.122 233.01 125.022 233.919 125.628C234.828 126.224 235.922 126.523 237.2 126.523C237.929 126.523 238.583 126.433 239.161 126.253C239.738 126.063 240.24 125.794 240.666 125.443C241.092 125.093 241.438 124.671 241.703 124.179C241.978 123.677 242.162 123.114 242.257 122.489L250.268 122.545C250.174 123.777 249.828 125.031 249.232 126.31C248.635 127.579 247.787 128.753 246.689 129.832C245.6 130.902 244.25 131.764 242.641 132.418C241.031 133.071 239.161 133.398 237.03 133.398C234.359 133.398 231.964 132.825 229.842 131.679C227.731 130.533 226.059 128.848 224.828 126.622C223.607 124.397 222.996 121.674 222.996 118.455C222.996 115.216 223.621 112.489 224.871 110.273C226.121 108.047 227.806 106.366 229.928 105.23C232.049 104.084 234.416 103.511 237.03 103.511C238.867 103.511 240.557 103.762 242.101 104.264C243.644 104.766 244.999 105.5 246.163 106.466C247.328 107.422 248.266 108.601 248.976 110.003C249.686 111.404 250.117 113.009 250.268 114.818ZM253.852 133V103.909H274.817V110.273H261.749V115.273H273.738V121.636H261.749V126.636H274.761V133H253.852Z" fill="black"/>
<defs>
<linearGradient id="paint0_linear_7_50" x1="954.984" y1="-2.88" x2="950.535" y2="-63.8371" gradientUnits="userSpaceOnUse">
<stop stop-color="#2230AC"/>
<stop offset="0.505208" stop-color="#AC32D7" stop-opacity="0.97"/>
<stop offset="0.953125" stop-color="#2F149E"/>
</linearGradient>
</defs>
</svg>
