<svg width="200" height="24" viewBox="0 0 200 24" fill="none" xmlns="http://www.w3.org/2000/svg">
<path d="M16.36 14C16.44 13.34 16.5 12.68 16.5 12C16.5 11.32 16.44 10.66 16.36 10H19.74C19.9 10.64 20 11.31 20 12C20 12.69 19.9 13.36 19.74 14M14.59 19.56C15.19 18.45 15.65 17.25 15.97 16H18.92C17.9512 17.6683 16.4141 18.932 14.59 19.56ZM14.34 14H9.66C9.56 13.34 9.5 12.68 9.5 12C9.5 11.32 9.56 10.65 9.66 10H14.34C14.43 10.65 14.5 11.32 14.5 12C14.5 12.68 14.43 13.34 14.34 14ZM12 19.96C11.17 18.76 10.5 17.43 10.09 16H13.91C13.5 17.43 12.83 18.76 12 19.96ZM8 8H5.08C6.03886 6.32721 7.5748 5.06149 9.4 4.44C8.8 5.55 8.35 6.75 8 8ZM5.08 16H8C8.35 17.25 8.8 18.45 9.4 19.56C7.57862 18.9317 6.04485 17.6677 5.08 16ZM4.26 14C4.1 13.36 4 12.69 4 12C4 11.31 4.1 10.64 4.26 10H7.64C7.56 10.66 7.5 11.32 7.5 12C7.5 12.68 7.56 13.34 7.64 14M12 4.03C12.83 5.23 13.5 6.57 13.91 8H10.09C10.5 6.57 11.17 5.23 12 4.03ZM18.92 8H15.97C15.657 6.76146 15.1936 5.5659 14.59 4.44C16.43 5.07 17.96 6.34 18.92 8ZM12 2C6.47 2 2 6.5 2 12C2 14.6522 3.05357 17.1957 4.92893 19.0711C5.85752 19.9997 6.95991 20.7362 8.17317 21.2388C9.38642 21.7413 10.6868 22 12 22C14.6522 22 17.1957 20.9464 19.0711 19.0711C20.9464 17.1957 22 14.6522 22 12C22 10.6868 21.7413 9.38642 21.2388 8.17317C20.7362 6.95991 19.9997 5.85752 19.0711 4.92893C18.1425 4.00035 17.0401 3.26375 15.8268 2.7612C14.6136 2.25866 13.3132 2 12 2Z" fill="#9747FF"/>
<path d="M39.8864 17.5V16.0398L45.6932 7.89205H39.875V5.86364H48.7841V7.32386L42.9716 15.4716H48.7955V17.5H39.8864ZM52.6889 17.5H50.0526L54.0696 5.86364H57.2401L61.2514 17.5H58.6151L55.7003 8.52273H55.6094L52.6889 17.5ZM52.5241 12.9261H58.7514V14.8466H52.5241V12.9261ZM69.821 9.625C69.7415 9.34848 69.6297 9.10417 69.4858 8.89205C69.3419 8.67614 69.1657 8.49432 68.9574 8.34659C68.7528 8.19508 68.518 8.07955 68.2528 8C67.9915 7.92045 67.7017 7.88068 67.3835 7.88068C66.7888 7.88068 66.2661 8.02841 65.8153 8.32386C65.3684 8.61932 65.0199 9.04924 64.7699 9.61364C64.5199 10.1742 64.3949 10.8598 64.3949 11.6705C64.3949 12.4811 64.518 13.1705 64.7642 13.7386C65.0104 14.3068 65.3589 14.7405 65.8097 15.0398C66.2604 15.3352 66.7926 15.483 67.4062 15.483C67.9631 15.483 68.4384 15.3845 68.8324 15.1875C69.2301 14.9867 69.5331 14.7045 69.7415 14.3409C69.9536 13.9773 70.0597 13.5473 70.0597 13.0511L70.5597 13.125H67.5597V11.2727H72.429V12.7386C72.429 13.7614 72.2131 14.6402 71.7812 15.375C71.3494 16.1061 70.7547 16.6705 69.9972 17.0682C69.2396 17.4621 68.3722 17.6591 67.3949 17.6591C66.304 17.6591 65.3456 17.4186 64.5199 16.9375C63.6941 16.4527 63.0502 15.7652 62.5881 14.875C62.1297 13.9811 61.9006 12.9205 61.9006 11.6932C61.9006 10.75 62.0369 9.90909 62.3097 9.17045C62.5862 8.42803 62.9725 7.79924 63.4688 7.28409C63.965 6.76894 64.5426 6.37689 65.2017 6.10795C65.8608 5.83901 66.5748 5.70455 67.3438 5.70455C68.0028 5.70455 68.6165 5.80114 69.1847 5.99432C69.7528 6.18371 70.2566 6.45265 70.696 6.80114C71.1392 7.14962 71.5009 7.56439 71.7812 8.04545C72.0616 8.52273 72.2415 9.04924 72.321 9.625H69.821ZM74.277 17.5V5.86364H78.8679C79.7467 5.86364 80.4967 6.02083 81.1179 6.33523C81.7429 6.64583 82.2183 7.08712 82.544 7.65909C82.8736 8.22727 83.0384 8.89583 83.0384 9.66477C83.0384 10.4375 82.8717 11.1023 82.5384 11.6591C82.205 12.2121 81.7221 12.6364 81.0895 12.9318C80.4607 13.2273 79.6993 13.375 78.8054 13.375H75.7315V11.3977H78.4077C78.8774 11.3977 79.2675 11.3333 79.5781 11.2045C79.8887 11.0758 80.1198 10.8826 80.2713 10.625C80.4266 10.3674 80.5043 10.0473 80.5043 9.66477C80.5043 9.27841 80.4266 8.95265 80.2713 8.6875C80.1198 8.42235 79.8868 8.22159 79.5724 8.08523C79.2618 7.94508 78.8698 7.875 78.3963 7.875H76.7372V17.5H74.277ZM80.5611 12.2045L83.4531 17.5H80.7372L77.9077 12.2045H80.5611ZM84.777 17.5V5.86364H92.6179V7.89205H87.2372V10.6648H92.2145V12.6932H87.2372V15.4716H92.6406V17.5H84.777ZM94.5739 17.5V5.86364H99.233C100.089 5.86364 100.803 5.99053 101.375 6.24432C101.947 6.49811 102.377 6.85038 102.665 7.30114C102.953 7.74811 103.097 8.26326 103.097 8.84659C103.097 9.30114 103.006 9.70076 102.824 10.0455C102.642 10.3864 102.392 10.6667 102.074 10.8864C101.759 11.1023 101.4 11.2557 100.994 11.3466V11.4602C101.438 11.4792 101.852 11.6042 102.239 11.8352C102.629 12.0663 102.945 12.3902 103.188 12.8068C103.43 13.2197 103.551 13.7121 103.551 14.2841C103.551 14.9015 103.398 15.4527 103.091 15.9375C102.788 16.4186 102.339 16.7992 101.744 17.0795C101.15 17.3598 100.417 17.5 99.5455 17.5H94.5739ZM97.0341 15.4886H99.0398C99.7254 15.4886 100.225 15.358 100.54 15.0966C100.854 14.8314 101.011 14.4792 101.011 14.0398C101.011 13.7178 100.934 13.4337 100.778 13.1875C100.623 12.9413 100.402 12.7481 100.114 12.608C99.8295 12.4678 99.4905 12.3977 99.0966 12.3977H97.0341V15.4886ZM97.0341 10.733H98.858C99.1951 10.733 99.4943 10.6742 99.7557 10.5568C100.021 10.4356 100.229 10.2652 100.381 10.0455C100.536 9.82576 100.614 9.5625 100.614 9.25568C100.614 8.83523 100.464 8.49621 100.165 8.23864C99.8693 7.98106 99.4489 7.85227 98.9034 7.85227H97.0341V10.733ZM107.737 15.9091L107.675 16.5341C107.625 17.0341 107.531 17.5322 107.391 18.0284C107.254 18.5284 107.11 18.9811 106.959 19.3864C106.811 19.7917 106.692 20.1098 106.601 20.3409H105.033C105.089 20.1174 105.167 19.8049 105.266 19.4034C105.364 19.0057 105.457 18.5587 105.544 18.0625C105.631 17.5663 105.686 17.0606 105.709 16.5455L105.737 15.9091H107.737ZM113.152 17.5V5.86364H115.612V10.6648H120.607V5.86364H123.061V17.5H120.607V12.6932H115.612V17.5H113.152ZM125.089 17.5V5.86364H129.68C130.559 5.86364 131.309 6.02083 131.93 6.33523C132.555 6.64583 133.031 7.08712 133.357 7.65909C133.686 8.22727 133.851 8.89583 133.851 9.66477C133.851 10.4375 133.684 11.1023 133.351 11.6591C133.018 12.2121 132.535 12.6364 131.902 12.9318C131.273 13.2273 130.512 13.375 129.618 13.375H126.544V11.3977H129.22C129.69 11.3977 130.08 11.3333 130.391 11.2045C130.701 11.0758 130.932 10.8826 131.084 10.625C131.239 10.3674 131.317 10.0473 131.317 9.66477C131.317 9.27841 131.239 8.95265 131.084 8.6875C130.932 8.42235 130.699 8.22159 130.385 8.08523C130.074 7.94508 129.682 7.875 129.209 7.875H127.55V17.5H125.089ZM131.374 12.2045L134.266 17.5H131.55L128.72 12.2045H131.374ZM137.379 5.86364L140.192 14.7045H140.3L143.118 5.86364H145.845L141.834 17.5H138.663L134.646 5.86364H137.379ZM147.705 17.5H145.068L149.085 5.86364H152.256L156.267 17.5H153.631L150.716 8.52273H150.625L147.705 17.5ZM147.54 12.9261H153.767V14.8466H147.54V12.9261ZM155.803 7.89205V5.86364H165.359V7.89205H161.797V17.5H159.365V7.89205H155.803ZM173.246 9.21023C173.2 8.75189 173.005 8.39583 172.661 8.14205C172.316 7.88826 171.848 7.76136 171.257 7.76136C170.856 7.76136 170.517 7.81818 170.24 7.93182C169.964 8.04167 169.751 8.19508 169.604 8.39205C169.46 8.58902 169.388 8.8125 169.388 9.0625C169.38 9.27083 169.424 9.45265 169.518 9.60795C169.617 9.76326 169.751 9.89773 169.922 10.0114C170.092 10.1212 170.289 10.2178 170.513 10.3011C170.736 10.3807 170.975 10.4489 171.229 10.5057L172.274 10.7557C172.782 10.8693 173.248 11.0208 173.672 11.2102C174.096 11.3996 174.464 11.6326 174.774 11.9091C175.085 12.1856 175.325 12.5114 175.496 12.8864C175.67 13.2614 175.759 13.6913 175.763 14.1761C175.759 14.8883 175.577 15.5057 175.217 16.0284C174.861 16.5473 174.346 16.9508 173.672 17.2386C173.001 17.5227 172.193 17.6648 171.246 17.6648C170.306 17.6648 169.488 17.5208 168.791 17.233C168.098 16.9451 167.556 16.5189 167.166 15.9545C166.78 15.3864 166.577 14.6837 166.558 13.8466H168.939C168.965 14.2367 169.077 14.5625 169.274 14.8239C169.475 15.0814 169.742 15.2765 170.075 15.4091C170.412 15.5379 170.793 15.6023 171.217 15.6023C171.634 15.6023 171.996 15.5417 172.303 15.4205C172.613 15.2992 172.854 15.1307 173.024 14.9148C173.195 14.6989 173.28 14.4508 173.28 14.1705C173.28 13.9091 173.202 13.6894 173.047 13.5114C172.895 13.3333 172.672 13.1818 172.376 13.0568C172.085 12.9318 171.727 12.8182 171.303 12.7159L170.036 12.3977C169.054 12.1591 168.28 11.786 167.712 11.2784C167.143 10.7708 166.861 10.0871 166.865 9.22727C166.861 8.52273 167.049 7.9072 167.428 7.38068C167.81 6.85417 168.335 6.44318 169.001 6.14773C169.668 5.85227 170.426 5.70455 171.274 5.70455C172.138 5.70455 172.892 5.85227 173.536 6.14773C174.183 6.44318 174.687 6.85417 175.047 7.38068C175.407 7.9072 175.592 8.51705 175.604 9.21023H173.246ZM177.418 17.5V5.86364H179.878V10.9943H180.031L184.219 5.86364H187.168L182.849 11.0739L187.219 17.5H184.276L181.088 12.7159L179.878 14.1932V17.5H177.418ZM190.455 17.5H187.818L191.835 5.86364H195.006L199.017 17.5H196.381L193.466 8.52273H193.375L190.455 17.5ZM190.29 12.9261H196.517V14.8466H190.29V12.9261Z" fill="white"/>
</svg>
