<svg width="108" height="42" viewBox="0 0 108 42" fill="none" xmlns="http://www.w3.org/2000/svg">
<g clip-path="url(#clip0_2_551)">
<path d="M37.2353 0.0391235H27.8857L18.6897 13.9247L9.48871 0.0391235H0.223328L18.7293 15.7387L37.2353 0.0391235ZM0.223328 41.9374H9.48871L18.6798 28.0518L27.8857 41.9374H37.2353L18.7293 26.2379L0.223328 41.9374Z" fill="url(#paint0_linear_2_551)"/>
<path d="M23.367 20.9883L37.2353 41.9374L18.7293 26.2379L0.223328 41.9374L14.0917 20.9883L0.223328 0.0391235L18.7293 15.7387L37.2353 0.0391235L23.367 20.9883Z" fill="url(#paint1_linear_2_551)"/>
<path d="M51.6536 4.99298V18.43C51.6293 18.8615 51.4364 19.2664 51.1161 19.5583C50.7958 19.8503 50.3735 20.0061 49.9393 19.9926H40.7036V3.43042H49.9343C50.3693 3.41556 50.7929 3.5708 51.1143 3.86287C51.4356 4.15494 51.6293 4.56062 51.6536 4.99298ZM49.1267 6.31894C49.1267 6.18821 49.0745 6.06283 48.9816 5.97039C48.8886 5.87795 48.7626 5.82602 48.6312 5.82602H43.2305V17.5625H48.656C48.7874 17.5625 48.9134 17.5105 49.0063 17.4181C49.0993 17.3257 49.1515 17.2003 49.1515 17.0695L49.1267 6.31894Z" fill="white"/>
<path d="M57.5002 5.84573V10.5038H63.4013V12.9191H57.5002V17.5822H65.9233V19.9926H54.9783V3.43042H65.9233V5.84573H57.5002Z" fill="white"/>
<path d="M80.2871 3.43042L75.2927 19.9926H72.8154L67.821 3.43042H70.3875L74.0739 16.0443L77.7354 3.43042H80.2871Z" fill="white"/>
<path d="M44.5832 39.9115C43.956 39.9118 43.3445 39.717 42.8341 39.3545C42.2624 38.9464 41.79 38.4157 41.4518 37.8018C41.0322 37.0652 40.7233 36.2713 40.5351 35.4456C40.1013 33.4976 40.1013 31.4786 40.5351 29.5306C40.7236 28.7042 41.0341 27.9102 41.4567 27.1744C41.7998 26.5609 42.2753 26.0306 42.849 25.6217C43.3569 25.258 43.9673 25.0631 44.5931 25.0647C45.2038 25.0666 45.7997 25.2521 46.3025 25.5971C46.8836 26.0052 47.3494 26.5552 47.6551 27.1941L47.0903 28.18C46.8244 27.6539 46.4352 27.1991 45.9556 26.854C45.5496 26.5832 45.07 26.4423 44.5811 26.4502C44.0923 26.4581 43.6176 26.6145 43.2206 26.8984C42.7564 27.235 42.3724 27.6692 42.0959 28.1701C41.7543 28.7715 41.5023 29.4191 41.3477 30.0925C40.9909 31.6798 40.9909 33.3259 41.3477 34.9133C41.5023 35.5852 41.7543 36.2311 42.0959 36.8307C42.3711 37.3326 42.7553 37.767 43.2206 38.1025C43.6273 38.3945 44.1163 38.5515 44.6178 38.551C45.0956 38.551 45.5622 38.4066 45.9556 38.137C46.433 37.7854 46.8214 37.328 47.0903 36.8012L47.6551 37.787C47.3467 38.4269 46.8816 38.9795 46.3025 39.3939C45.7957 39.7367 45.1959 39.9172 44.5832 39.9115Z" fill="white"/>
<path d="M51.6487 39.8868C51.3411 39.8847 51.0373 39.8198 50.756 39.696C50.4747 39.5722 50.222 39.3922 50.0136 39.1672C49.4844 38.6073 49.0942 37.9321 48.874 37.1955C48.3125 35.3053 48.3125 33.2939 48.874 31.4037C49.0927 30.6675 49.4813 29.9924 50.0086 29.432C50.2204 29.2109 50.4747 29.0345 50.7565 28.9134C51.0383 28.7923 51.3417 28.7289 51.6487 28.7271C51.9579 28.7286 52.2636 28.7918 52.5478 28.9129C52.8321 29.0339 53.089 29.2105 53.3035 29.432C53.833 29.9908 54.2219 30.6665 54.4382 31.4037C54.9864 33.2958 54.9864 35.3034 54.4382 37.1955C54.2204 37.9331 53.8299 38.6089 53.2986 39.1672C53.0872 39.3924 52.8318 39.5723 52.5481 39.6961C52.2645 39.8198 51.9584 39.8847 51.6487 39.8868ZM51.6487 38.5757C51.8754 38.5743 52.0994 38.5263 52.3066 38.4347C52.5138 38.343 52.6997 38.2098 52.8527 38.0433C53.2458 37.6147 53.5311 37.0995 53.6851 36.5399C54.088 35.0682 54.088 33.5161 53.6851 32.0445C53.5278 31.4935 53.2427 30.987 52.8527 30.5657C52.7025 30.3983 52.5186 30.2644 52.3128 30.1727C52.107 30.081 51.884 30.0336 51.6586 30.0336C51.4331 30.0336 51.2102 30.081 51.0044 30.1727C50.7986 30.2644 50.6146 30.3983 50.4645 30.5657C50.0745 30.9878 49.7879 31.4939 49.6271 32.0445C49.211 33.5143 49.211 35.07 49.6271 36.5399C49.7847 37.0991 50.0714 37.6139 50.4645 38.0433C50.6142 38.2086 50.7968 38.3412 51.0006 38.4328C51.2044 38.5244 51.425 38.573 51.6487 38.5757Z" fill="white"/>
<path d="M59.7893 28.7271C60.283 28.7193 60.7619 28.8951 61.1321 29.22C61.5704 29.6481 61.8838 30.1864 62.0388 30.7777C62.2821 31.6317 62.3941 32.5175 62.3708 33.4049V39.7685H61.5136V33.5577C61.5671 32.6564 61.3969 31.7559 61.0181 30.9354C60.8963 30.6701 60.7001 30.4453 60.4532 30.2879C60.2063 30.1306 59.9191 30.0473 59.6258 30.0481C59.4085 30.0489 59.1936 30.093 58.9936 30.1776C58.7937 30.2623 58.6127 30.3858 58.4615 30.5411C58.0922 30.9186 57.829 31.3861 57.6984 31.8966C57.5018 32.5924 57.41 33.3133 57.4259 34.0359V39.7932H56.5787V28.8306H57.3912V31.8325L57.2624 31.2706C57.4094 30.5746 57.7394 29.93 58.2187 29.4024C58.4176 29.1858 58.6605 29.0136 58.9312 28.8972C59.202 28.7808 59.4944 28.7228 59.7893 28.7271Z" fill="white"/>
<path d="M63.6838 30.058V28.8306H67.5683V30.058H63.6838ZM64.8085 39.7833V27.4603C64.7754 26.6462 64.9456 25.8367 65.304 25.1041C65.4273 24.835 65.6262 24.6071 65.8768 24.4479C66.1273 24.2888 66.4188 24.2051 66.7161 24.207C66.9576 24.206 67.1956 24.2635 67.4097 24.3746C67.6413 24.494 67.8351 24.6748 67.9696 24.8971L67.6823 26.0012C67.5776 25.8343 67.4351 25.6942 67.2661 25.5921C67.1145 25.5077 66.9443 25.4619 66.7706 25.459C66.5966 25.4569 66.4257 25.5051 66.2788 25.5979C66.1319 25.6907 66.0152 25.824 65.9431 25.9815C65.7271 26.4662 65.6303 26.9951 65.6607 27.5244V29.1954V29.8805V39.7932L64.8085 39.7833Z" fill="white"/>
<path d="M71.2745 39.8869C70.9539 39.8887 70.6363 39.8258 70.3408 39.7021C70.0453 39.5784 69.778 39.3965 69.5552 39.1672C69.0139 38.6131 68.6161 37.9365 68.3958 37.1955C68.1003 36.2614 67.9581 35.2861 67.9746 34.307C67.9587 33.3326 68.0941 32.3616 68.3759 31.4283C68.5845 30.6954 68.961 30.0205 69.4759 29.4567C69.6724 29.2339 69.9138 29.0547 70.1843 28.9308C70.4549 28.8068 70.7487 28.7408 71.0466 28.737C71.3431 28.7391 71.636 28.8018 71.9071 28.9214C72.1781 29.041 72.4216 29.2148 72.6222 29.432C73.1321 29.9963 73.5021 30.6715 73.7023 31.4037C73.98 32.3496 74.1136 33.3316 74.0987 34.3169C74.0987 34.3859 74.0987 34.4598 74.0987 34.5338C74.0987 34.6077 74.0987 34.6915 74.0987 34.7753H68.6485V33.6711H73.6577L73.3208 34.1049C73.3307 33.3894 73.2321 32.6765 73.0285 31.9903C72.8803 31.4528 72.6089 30.9568 72.2357 30.5411C72.0894 30.3775 71.9101 30.2464 71.7095 30.1563C71.5089 30.0663 71.2914 30.0194 71.0713 30.0186C70.8523 30.0216 70.6363 30.0695 70.4368 30.1594C70.2373 30.2493 70.0586 30.3793 69.9119 30.5411C69.5277 30.9612 69.2537 31.4691 69.1142 32.0199C68.9117 32.7181 68.8149 33.4424 68.8268 34.169V34.4007C68.8125 35.1457 68.9196 35.8881 69.1439 36.5991C69.3091 37.1576 69.6124 37.666 70.0259 38.0779C70.3713 38.4183 70.8378 38.6096 71.324 38.6102C71.7097 38.6088 72.0848 38.4844 72.3942 38.2553C72.764 37.9681 73.0581 37.596 73.2514 37.1709L73.7469 38.1271C73.5153 38.6519 73.156 39.111 72.7014 39.463C72.2871 39.7596 71.7845 39.9089 71.2745 39.8869Z" fill="white"/>
<path d="M75.8328 39.7833V28.8306H76.6454V31.7882L76.5611 31.2657C76.6747 30.5617 76.9797 29.902 77.4431 29.3581C77.6384 29.1463 77.8769 28.9783 78.1426 28.8652C78.4083 28.7522 78.6951 28.6967 78.984 28.7025V30.1418H78.8899C78.8587 30.1371 78.8269 30.1371 78.7957 30.1418C78.4615 30.1487 78.1365 30.252 77.8603 30.4393C77.5841 30.6266 77.3686 30.8897 77.2399 31.1966C76.8192 32.138 76.6274 33.1647 76.68 34.1936V39.7833H75.8328Z" fill="white"/>
<path d="M83.1361 39.8868C82.8148 39.8887 82.4963 39.8259 82.2 39.7023C81.9037 39.5786 81.6356 39.3966 81.4118 39.1672C80.8706 38.613 80.4727 37.9364 80.2524 37.1955C79.9611 36.2606 79.8207 35.2856 79.8362 34.307C79.8203 33.3326 79.9557 32.3616 80.2376 31.4283C80.442 30.6937 80.819 30.0179 81.3375 29.4566C81.532 29.2329 81.7721 29.053 82.042 28.929C82.3119 28.8049 82.6053 28.7395 82.9026 28.7372C83.1998 28.7349 83.4942 28.7957 83.766 28.9155C84.0378 29.0353 84.2808 29.2114 84.4788 29.432C84.9906 29.9949 85.3608 30.6707 85.5589 31.4037C85.8393 32.349 85.973 33.3314 85.9553 34.3168C85.9553 34.3858 85.9553 34.4598 85.9553 34.5337C85.9553 34.6077 85.9553 34.6914 85.9553 34.7752H80.5051V33.6711H85.5144L85.1774 34.1049C85.1898 33.3892 85.0912 32.676 84.8851 31.9902C84.7369 31.4528 84.4656 30.9567 84.0923 30.5411C83.9468 30.3778 83.7684 30.2469 83.5686 30.1569C83.3688 30.0668 83.1522 30.0197 82.9329 30.0186C82.7138 30.0206 82.4975 30.0682 82.2978 30.1582C82.0982 30.2481 81.9196 30.3785 81.7735 30.5411C81.3897 30.9621 81.1143 31.4696 80.9708 32.0198C80.7684 32.718 80.6715 33.4423 80.6835 34.1689V34.4006C80.6719 35.1455 80.7789 35.8875 81.0006 36.5991C81.1674 37.1579 81.4723 37.6663 81.8875 38.0778C82.0573 38.2467 82.259 38.3806 82.4808 38.472C82.7027 38.5633 82.9405 38.6103 83.1807 38.6102C83.5667 38.6105 83.9423 38.486 84.2509 38.2553C84.622 37.9695 84.9165 37.597 85.1081 37.1708L85.6035 38.1271C85.3742 38.6531 85.0145 39.1127 84.5581 39.4629C84.1453 39.7588 83.6445 39.9081 83.1361 39.8868Z" fill="white"/>
<path d="M90.8903 28.7271C91.3857 28.7181 91.8665 28.8939 92.238 29.2201C92.6763 29.6481 92.9897 30.1864 93.1447 30.7777C93.3856 31.6322 93.4975 32.5177 93.4767 33.405V39.7686H92.6245V33.5578C92.6779 32.6565 92.5078 31.7559 92.129 30.9354C92.0066 30.6705 91.8104 30.446 91.5636 30.2887C91.3168 30.1314 91.0298 30.048 90.7367 30.0482C90.5194 30.049 90.3044 30.093 90.1045 30.1776C89.9045 30.2623 89.7236 30.3859 89.5723 30.5411C89.2031 30.9194 88.9385 31.3864 88.8043 31.8966C88.612 32.5932 88.5219 33.3137 88.5368 34.0359V39.7932H87.6895V28.8306H88.5021V31.8325L88.3683 31.2706C88.5194 30.5761 88.8489 29.9325 89.3246 29.4024C89.5236 29.1872 89.7657 29.0158 90.0354 28.8995C90.3051 28.7832 90.5964 28.7245 90.8903 28.7271Z" fill="white"/>
<path d="M98.3769 39.8869C98.0641 39.886 97.7547 39.8217 97.4676 39.698C97.1806 39.5742 96.9218 39.3936 96.7072 39.1672C96.171 38.6101 95.7754 37.9343 95.5527 37.1955C94.9988 35.3042 94.9988 33.295 95.5527 31.4037C95.7736 30.6641 96.1695 29.988 96.7072 29.432C96.9246 29.2103 97.1843 29.0337 97.4709 28.9127C97.7576 28.7917 98.0655 28.7286 98.3769 28.7271C98.9098 28.725 99.4247 28.918 99.8237 29.2693C100.305 29.709 100.657 30.2716 100.839 30.896L100.205 31.6452C100.048 31.1729 99.7717 30.7486 99.4026 30.4129C99.1144 30.1618 98.7452 30.0219 98.3621 30.0186C98.1355 30.0211 97.9119 30.0697 97.7049 30.1612C97.4979 30.2528 97.3118 30.3854 97.1581 30.5509C96.7597 30.9693 96.4675 31.4763 96.3059 32.0297C95.8962 33.5038 95.8962 35.0609 96.3059 36.535C96.4675 37.0884 96.7597 37.5954 97.1581 38.0138C97.3118 38.1793 97.4979 38.3119 97.7049 38.4035C97.9119 38.495 98.1355 38.5435 98.3621 38.5461C98.7462 38.5432 99.116 38.4013 99.4026 38.1468C99.7695 37.8192 100.046 37.4034 100.205 36.9392L100.839 37.6884C100.65 38.3071 100.3 38.8649 99.8237 39.3052C99.4314 39.6721 98.9153 39.8796 98.3769 39.8869Z" fill="white"/>
<path d="M105.061 39.8869C104.74 39.8887 104.421 39.826 104.125 39.7023C103.828 39.5786 103.56 39.3966 103.337 39.1672C102.795 38.6131 102.397 37.9364 102.177 37.1955C101.886 36.2606 101.745 35.2857 101.761 34.307C101.746 33.333 101.88 32.3624 102.157 31.4283C102.366 30.6954 102.742 30.0205 103.257 29.4566C103.452 29.2328 103.693 29.0529 103.963 28.9288C104.233 28.8047 104.527 28.7393 104.825 28.737C105.123 28.7346 105.417 28.7954 105.689 28.9153C105.962 29.0351 106.205 29.2113 106.404 29.432C106.914 29.9962 107.283 30.6715 107.484 31.4037C107.761 32.3496 107.895 33.3316 107.88 34.3169C107.88 34.3859 107.88 34.4598 107.88 34.5337C107.88 34.6077 107.88 34.6915 107.88 34.7753H102.43V33.6711H107.439L107.102 34.1049C107.115 33.3893 107.016 32.676 106.81 31.9903C106.662 31.4528 106.39 30.9567 106.017 30.5411C105.872 30.3778 105.693 30.2469 105.493 30.1569C105.294 30.0669 105.077 30.0198 104.858 30.0186C104.639 30.0207 104.422 30.0682 104.223 30.1582C104.023 30.2481 103.844 30.3786 103.698 30.5411C103.312 30.9607 103.037 31.4686 102.896 32.0198C102.693 32.7181 102.596 33.4424 102.608 34.169V34.4006C102.594 35.1457 102.701 35.8881 102.925 36.5991C103.092 37.158 103.397 37.6664 103.812 38.0778C103.982 38.2467 104.184 38.3807 104.406 38.472C104.628 38.5633 104.865 38.6103 105.105 38.6102C105.491 38.6106 105.867 38.486 106.176 38.2553C106.547 37.9696 106.841 37.5971 107.033 37.1709L107.528 38.1271C107.299 38.6532 106.939 39.1128 106.483 39.463C106.07 39.7589 105.569 39.9082 105.061 39.8869Z" fill="white"/>
</g>
<defs>
<linearGradient id="paint0_linear_2_551" x1="-1.055" y1="40.6706" x2="38.3042" y2="1.10251" gradientUnits="userSpaceOnUse">
<stop stop-color="#020441"/>
<stop offset="0.333333" stop-color="#383DCC"/>
<stop offset="0.729167" stop-color="#D478FF"/>
<stop offset="0.98" stop-color="#5D1369"/>
</linearGradient>
<linearGradient id="paint1_linear_2_551" x1="0.223328" y1="20.9883" x2="37.2353" y2="20.9883" gradientUnits="userSpaceOnUse">
<stop stop-color="#0E0A3D"/>
<stop offset="0.07" stop-color="#6541F7"/>
<stop offset="0.307292" stop-color="#C956FF"/>
<stop offset="0.630208" stop-color="#662D91"/>
<stop offset="0.89" stop-color="#2E3192"/>
<stop offset="1" stop-color="#282DDF"/>
</linearGradient>
<clipPath id="clip0_2_551">
<rect width="108" height="42" fill="white"/>
</clipPath>
</defs>
</svg>
