<svg width="349" height="90" viewBox="0 0 349 90" fill="none" xmlns="http://www.w3.org/2000/svg">
<path d="M0.616625 90L40.5526 34.192L40.4246 55.312L1.76863 0.399994H35.6886L58.2166 33.68L43.7526 33.808L65.7686 0.399994H98.2806L59.6246 54.16V33.168L100.201 90H65.6406L43.1126 55.184L57.0646 55.056L35.0486 90H0.616625Z" fill="url(#paint0_linear_2_709)"/>
<path d="M133.394 90V22.8H166.514C174.002 22.8 180.594 24.176 186.29 26.928C191.986 29.616 196.434 33.456 199.634 38.448C202.834 43.44 204.434 49.392 204.434 56.304C204.434 63.28 202.834 69.296 199.634 74.352C196.434 79.344 191.986 83.216 186.29 85.968C180.594 88.656 174.002 90 166.514 90H133.394ZM156.05 72.336H165.554C168.754 72.336 171.538 71.728 173.906 70.512C176.338 69.296 178.226 67.504 179.57 65.136C180.914 62.704 181.586 59.76 181.586 56.304C181.586 52.912 180.914 50.032 179.57 47.664C178.226 45.296 176.338 43.504 173.906 42.288C171.538 41.072 168.754 40.464 165.554 40.464H156.05V72.336ZM233.442 47.76H263.394V64.08H233.442V47.76ZM234.978 72.912H268.578V90H212.706V22.8H267.33V39.888H234.978V72.912ZM297.483 90L269.067 22.8H293.451L316.587 79.536H302.091L325.899 22.8H348.171L319.755 90H297.483Z" fill="white"/>
<defs>
<linearGradient id="paint0_linear_2_709" x1="79.5" y1="17" x2="4.22057" y2="97.9261" gradientUnits="userSpaceOnUse">
<stop stop-color="#DB00FF"/>
<stop offset="0.67254" stop-color="#3770C5" stop-opacity="0.97"/>
<stop offset="0.953125" stop-color="#2295FF"/>
</linearGradient>
</defs>
</svg>
